<svg width="62" height="62" viewBox="0 0 62 62" fill="none" xmlns="http://www.w3.org/2000/svg">
<path fill-rule="evenodd" clip-rule="evenodd" d="M31 0C13.8725 0 0 13.8725 0 31C0 44.7175 8.87375 56.3037 21.1962 60.4112C22.7462 60.6825 23.3275 59.7525 23.3275 58.9387C23.3275 58.2025 23.2888 55.7612 23.2888 53.165C15.5 54.5987 13.485 51.2662 12.865 49.5225C12.5162 48.6312 11.005 45.88 9.6875 45.1437C8.6025 44.5625 7.0525 43.1287 9.64875 43.09C12.09 43.0512 13.8337 45.3375 14.415 46.2675C17.205 50.9562 21.6612 49.6387 23.4437 48.825C23.715 46.81 24.5287 45.4537 25.42 44.6787C18.5225 43.9037 11.315 41.23 11.315 29.3725C11.315 26.0012 12.5162 23.2113 14.4925 21.0413C14.1825 20.2663 13.0975 17.0887 14.8025 12.8262C14.8025 12.8262 17.3987 12.0125 23.3275 16.0037C25.8075 15.3062 28.4425 14.9575 31.0775 14.9575C33.7125 14.9575 36.3475 15.3062 38.8275 16.0037C44.7562 11.9738 47.3525 12.8262 47.3525 12.8262C49.0575 17.0887 47.9725 20.2663 47.6625 21.0413C49.6388 23.2113 50.84 25.9625 50.84 29.3725C50.84 41.2687 43.5937 43.9037 36.6962 44.6787C37.82 45.6475 38.7887 47.5075 38.7887 50.4137C38.7887 54.56 38.75 57.8925 38.75 58.9387C38.75 59.7525 39.3312 60.7212 40.8812 60.4112C47.0352 58.3335 52.3827 54.3783 56.1711 49.1024C59.9595 43.8264 61.9981 37.4952 62 31C62 13.8725 48.1275 0 31 0Z" fill="white"/>
</svg>
